<svg aria-hidden="true" style="position: absolute; width: 0; height: 0; overflow: hidden;" version="1.1" xmlns="http://www.w3.org/2000/svg" xmlns:xlink="http://www.w3.org/1999/xlink">
     <defs>
          <symbol id="logo" viewBox="0 0 96 32">
               <path d="M56.006 22.016l-8.337 3.944-7.982-3.944h-39.686l37.175 3.944 10.493 6.040 10.481-6.040 37.353-3.944h-39.497z"></path>
               <path d="M50.795 19.079l-3.127-19.079-2.7 19.079 2.7 3.079 3.127-3.079z"></path>
               <path d="M8.48 17.386h3.434l0.663 1.386h1.99l-0.663-1.386-0.474-1.007-1.812-3.778h-2.854l-2.949 6.17h1.99l0.675-1.386zM10.197 13.797l1.244 2.594h-2.475l1.232-2.594z"></path>
               <path d="M19.47 18.771l0.568-1.184 2.38-4.974h-1.99l-2.38 4.974-2.38-4.974h-1.99l2.949 6.158h2.842z"></path>
               <path d="M25.060 12.613h-1.99v6.17h1.99v-6.17z"></path>
               <path d="M28.791 17.386h3.434l0.663 1.386h1.99l-0.663-1.386-0.474-1.007-1.812-3.778h-2.854l-2.949 6.17h2.002l0.663-1.386zM30.508 13.797l1.244 2.594h-2.475l1.232-2.594z"></path>
               <path d="M67.719 18.049l0.509 0.438 0.64 0.249v0.036h3.873v-0.012l0.699-0.201 0.569-0.45 0.367-0.604 0.059-0.284 0.083-0.45v-4.157h-1.99v4.607h-3.281v-4.607h-1.989v4.157l0.118 0.687 0.343 0.592z"></path>
               <path d="M78.058 17.386h3.435l0.663 1.386h2.002l-0.663-1.386-0.486-1.007-1.243-2.594-0.569-1.184h-2.843l-2.949 6.17h1.99l0.663-1.386zM79.775 13.797l1.244 2.594h-2.475l1.231-2.594z"></path>
          </symbol>
          <symbol id="plus" viewBox="0 0 32 32">
               <path d="M9.963 9.626v-9.201c1.416-0.437 7.427-0.56 12.309-0.258 0.3 1.514 0.107 3.089 0.14 4.646 0.033 1.517 0.008 3.035 0.008 4.767h9.29c0.365 1.765 0.39 10.768 0.053 12.752h-9.142c-0.377 1.693-0.156 3.273-0.193 4.836-0.041 1.512-0.008 3.026-0.008 4.502-1.551 0.364-9.486 0.45-12.42 0.141-0.016-1.53-0.041-3.093-0.049-4.656-0.012-1.513-0.004-3.025-0.004-4.696-0.907-0.025-1.682-0.062-2.458-0.066-1.998-0.009-3.992 0.019-5.986-0.011-1.214-0.018-1.477-0.239-1.485-1.341-0.029-3.702-0.012-7.404-0.012-11.185 1.719-0.443 3.373-0.167 5.002-0.22 1.58-0.051 3.164-0.011 4.957-0.011z"></path>
          </symbol>
     </defs>
</svg>
