<svg width="481" height="196" viewBox="0 0 481 196" fill="none" xmlns="http://www.w3.org/2000/svg">
<path d="M356.794 59.9999L369.814 89.9788L383.16 111.44L396.988 122.659" stroke="#40C274" stroke-width="1.08501" stroke-linecap="round" stroke-linejoin="round"/>
<path d="M308.825 55.6976L322.176 81.6186L335.495 110.778L349.139 129.229L363.141 139.488" stroke="#40C274" stroke-width="1.08501" stroke-linecap="round" stroke-linejoin="round"/>
<path d="M296.809 68.2677L310.236 93.1796L323.701 119.019L337.437 135.864L351.504 145.277" stroke="#40C274" stroke-width="1.08501" stroke-linecap="round" stroke-linejoin="round"/>
<path d="M320.593 49.2365L333.9 73.4323L347.132 102.711L360.662 122.714L374.599 133.792" stroke="#40C274" stroke-width="1.08501" stroke-linecap="round" stroke-linejoin="round"/>
<path d="M258.812 83.1866L272.255 106.981L285.828 124.081L299.576 137.681L313.496 149.302L327.672 157.125L339.683 151.152L351.504 145.277L363.141 139.488L374.599 133.792L385.878 128.182L396.988 122.659L407.93 117.218L418.71 111.858" stroke="#40C274" stroke-width="1.08501" stroke-linecap="round" stroke-linejoin="round"/>
<path d="M347.387 19.3769L323.799 16.431L312.829 21.6771L308.18 25.1762L301.654 30.0914L290.266 45.1351L277.507 45.1893L264.861 60.4664L252.524 70.5461L241.197 75.2985L229.706 80.116L218.048 85.004L206.227 89.9679L194.226 94.997L182.074 90.3097L170.068 84.6513L158.014 70.0145L146.198 61.253L134.545 53.5928L122.306 58.7249L110.024 67.622L97.6764 79.0038L85.0739 87.5917L72.2328 94.5684L60.8238 88.8178L47.8308 96.1525L36.6497 91.6551L25.6097 87.1089L14.7487 83.1215L1.48438 88.0528" stroke="#40C274" stroke-width="1.08501" stroke-linecap="round" stroke-linejoin="round"/>
<path d="M258.812 83.1866L246.356 101.399L233.791 119.432L221.091 135.202L208.239 148.792L195.181 158.389L181.884 165.29L168.604 159.604" stroke="#40C274" stroke-width="1.08501" stroke-linecap="round" stroke-linejoin="round"/>
<path d="M360.358 25.7566L365.333 31.6916" stroke="#40C274" stroke-width="1.08501" stroke-linecap="round" stroke-linejoin="round"/>
<path d="M271.066 78.0977L284.553 90.2878L298.056 111.38L311.738 127.249L325.561 142.325L339.683 151.152" stroke="#40C274" stroke-width="1.08501" stroke-linecap="round" stroke-linejoin="round"/>
<path d="M308.825 55.6976L296.809 68.2675L284.554 90.2879L272.255 106.981L259.848 120.126L247.3 132.376L234.6 146.524L221.731 157.217L208.662 164.785L195.181 158.389L181.884 151.553L168.772 144.777L155.866 139.032L143.182 134.811L129.923 143.041" stroke="#40C274" stroke-width="1.08501" stroke-linecap="round" stroke-linejoin="round"/>
<path d="M407.93 117.218L394.102 107.23L380.729 88.7581L367.666 63.7323L354.51 43.5293L347.907 39.7426L341.121 35.8474L327.786 32.9884L314.684 28.0353L301.653 30.0914L288.828 33.1837L288.253 33.7804L287.51 34.5617L277.837 44.6849L277.208 45.1894L276.139 46.2907L263.727 58.6218L251.602 61.5568L240.421 66.179L229.077 70.8662L217.581 75.624L205.608 70.6981L193.938 75.9549L182.101 80.7832L170.068 84.6513L157.905 90.6515L145.541 95.6913L132.993 100.807L120.228 104.941L108.418 100.731L96.6886 94.5629L85.0736 87.5917L73.5996 80.6205L62.4727 78.0924L49.6424 84.6839L36.6494 91.6551L23.4014 97.4328" stroke="#40C274" stroke-width="1.08501" stroke-linecap="round" stroke-linejoin="round"/>
<path d="M251.602 61.5567L262.663 48.824L274.87 40.1927" stroke="#40C274" stroke-width="1.08501" stroke-linecap="round" stroke-linejoin="round"/>
<path d="M256.533 74.5064L264.861 60.4663L276.139 46.2906L277.262 45.1893L277.837 44.6848L287.51 34.5616L288.829 33.1836L296.288 28.2793L299.966 25.8597L303.498 23.6518L310.963 18.9753" stroke="#40C274" stroke-width="1.08501" stroke-linecap="round" stroke-linejoin="round"/>
<path d="M142.628 148.483L155.865 139.032L168.869 127.233L177.62 121.048L181.754 118.129L186.283 116.551L192.56 114.37L194.53 113.681L204.897 109.048L207.327 107.724L216.507 103.601L220.391 101.854" stroke="#40C274" stroke-width="1.08501" stroke-linecap="round" stroke-linejoin="round"/>
<path d="M155.524 154L168.772 144.777L181.717 128.583" stroke="#40C274" stroke-width="1.08501" stroke-linecap="round" stroke-linejoin="round"/>
<path d="M439.793 101.382L425.97 94.2428L415.505 98.5666L404.882 102.939L394.103 107.23L383.16 111.44L372.023 116.263L360.663 122.714L349.14 129.229L337.438 135.864L325.562 142.325L313.497 149.302L301.253 156.392L288.818 162.995L276.189 169.662L262.127 163.575L248.271 155.779L234.6 146.524L221.092 135.202L207.719 122.274L194.574 115.921L181.755 118.129L169.147 119.507L156.68 117.234L144.43 115.889L132.262 110.909L120.229 104.941L107.339 111.272L95.5123 106.362L83.7995 100.574L70.7088 106.297L57.4229 111.999" stroke="#40C274" stroke-width="1.08501" stroke-linecap="round" stroke-linejoin="round"/>
<path d="M277.659 181.988L263.358 176.053L250.316 182.427L237.063 188.91L222.952 182.872" stroke="#40C274" stroke-width="1.08501" stroke-linecap="round" stroke-linejoin="round"/>
<path d="M318.618 39.1675L332.11 46.1984L345.451 65.8372L358.606 94.6117L372.023 116.263L385.878 128.182" stroke="#40C274" stroke-width="1.08501" stroke-linecap="round" stroke-linejoin="round"/>
<path d="M117.407 137.681L130.682 130.585L143.746 122.773L156.679 117.234L169.493 115.52L180.007 117.017" stroke="#40C274" stroke-width="1.08501" stroke-linecap="round" stroke-linejoin="round"/>
<path d="M264.633 188.465L251.396 195.046L237.062 188.91" stroke="#40C274" stroke-width="1.08501" stroke-linecap="round" stroke-linejoin="round"/>
<path d="M105.065 132.397L118.362 126.131L131.442 119.236L143.746 122.773L156.224 125.67L169.146 119.507L181.944 117.288L188.275 115.476" stroke="#40C274" stroke-width="1.08501" stroke-linecap="round" stroke-linejoin="round"/>
<path d="M181.885 165.29L195.366 171.062L209.054 176.921L222.339 170.633L235.409 164.053L249.28 170.167L262.127 163.575L274.784 155.948L287.261 147.273L299.576 137.681L311.739 127.249L323.702 119.019L335.496 110.779L347.132 102.711L358.606 94.6118L369.815 89.9789L380.73 88.7582L391.461 87.7057L402.034 86.0728L412.456 83.9299L422.736 81.3855L436.272 89.9571L450.106 96.2556" stroke="#40C274" stroke-width="1.08501" stroke-linecap="round" stroke-linejoin="round"/>
<path d="M34.5879 102.223L47.8305 96.1524L59.1906 101.143L72.2325 94.5682L83.7987 100.574L96.6887 94.5628L109.297 85.9587L121.639 74.0614L133.97 66.5044L146.198 61.2529L158.35 60.157L170.242 55.8115L181.955 50.522L193.559 49.6432L198.213 54.3088L205.31 61.4211L217.12 66.4989L228.469 61.8713L239.661 57.3034L250.701 52.8006L262.663 48.824L273.611 37.746L283.056 34.9955L286.973 32.5705L287.309 32.2884L288.584 31.594L295.621 28.0677L299.966 25.8597L305.125 24.1834L312.829 21.677L325.811 22.4527L336.716 19.6534L349.779 24.1616L360.358 25.7566L365.886 31.6211L370.156 36.3572L370.449 36.6773L383.263 49.551L383.561 49.7897L384.961 50.7608L391.037 55.0846L393.174 56.6036L399.988 60.9111L406.205 64.8388L416.106 65.8642L429.381 70.8769L439.26 67.9745L452.704 72.3634" stroke="#40C274" stroke-width="1.08501" stroke-linecap="round" stroke-linejoin="round"/>
<path d="M480.143 81.3202L466.331 76.812L456.474 80.8917L446.443 85.4813L436.271 89.957L425.969 94.2428L412.455 83.9297L399.163 71.8481L388.807 70.5895L375.787 52.2364L372.559 47.164L363.472 32.896L362.913 32.0226L349.779 24.1617L338.885 27.5306L325.811 22.4528L314.684 28.0352L303.329 38.7225L291.883 46.4208L280.224 60.1624L268.435 75.9277L255.497 82.7307L251.721 86.1757" stroke="#40C274" stroke-width="1.08501" stroke-linecap="round" stroke-linejoin="round"/>
<path d="M92.8965 127.189L106.22 121.683L119.338 116.252L131.442 119.236L144.429 115.889L157.156 110.545L169.493 115.52L182.025 110.187L194.372 104.93L204.349 108.836" stroke="#40C274" stroke-width="1.08501" stroke-linecap="round" stroke-linejoin="round"/>
<path d="M12.3721 92.7129L25.6093 87.1089L38.6782 81.8628L49.6423 84.6839L60.8234 88.8178L73.5994 80.6205L86.2236 72.7053L98.6524 64.0957L109.383 57.0811L110.951 56.0558L118.893 51.7428L120.716 50.7555L123.136 49.4426L128.083 47.1858L132.651 45.1025L135.19 43.9415L146.653 49.9254L158.35 60.1571L170.177 70.991L182.101 80.7832L194.079 85.3403L205.912 80.4469L217.581 75.624L229.706 80.1159L241.994 84.6676L253.473 79.6711L261.193 72.4124" stroke="#40C274" stroke-width="1.08501" stroke-linecap="round" stroke-linejoin="round"/>
<path d="M69.0801 116.99L82.3932 111.636L95.5111 106.363L108.417 100.731L121.014 91.4545" stroke="#40C274" stroke-width="1.08501" stroke-linecap="round" stroke-linejoin="round"/>
<path d="M290.467 175.619L277.658 181.988L264.633 188.465L250.316 182.427L236.222 176.487L222.952 182.872L209.053 176.921" stroke="#40C274" stroke-width="1.08501" stroke-linecap="round" stroke-linejoin="round"/>
<path d="M303.069 169.358L290.467 175.619L276.188 169.662L263.358 176.053L249.28 170.167L236.221 176.487L222.339 170.633L208.662 164.785L195.365 171.062" stroke="#40C274" stroke-width="1.08501" stroke-linecap="round" stroke-linejoin="round"/>
<path d="M283.148 71.6366L296.809 68.2677" stroke="#40C274" stroke-width="1.08501" stroke-linecap="round" stroke-linejoin="round"/>
<path d="M278.841 53.2617L290.266 45.135L303.33 38.7225L316.556 37.1439L328.258 36.2324L329.994 36.0968L343.491 41.5436L356.794 59.9997L367.666 63.7322L378.309 67.9854L388.807 70.5895L389.925 71.8968L402.033 86.0726L415.504 98.5665L429.327 106.579" stroke="#40C274" stroke-width="1.08501" stroke-linecap="round" stroke-linejoin="round"/>
<path d="M14.749 83.1215L27.8234 78.2551L38.679 81.8628L51.5635 76.7307L62.4734 78.0924L71.0829 73.3238L75.1138 71.0886L81.9114 67.367L87.5915 64.2531L92.1051 62.0667L99.9335 58.2692L107.122 56.8261L110.952 56.0558L122.306 58.7249L133.97 66.5045L145.949 81.1467L157.906 90.6515L169.895 95.3441L182.053 100.107L194.373 104.93L206.542 99.7547L218.531 94.6498L230.347 89.6261L241.994 84.6676L250.783 84.8141" stroke="#40C274" stroke-width="1.08501" stroke-linecap="round" stroke-linejoin="round"/>
<path d="M267.237 65.2075L267.443 65.0447L278.842 53.2615L291.883 46.4205L305.164 40.594L318.618 39.1672L329.995 36.0966L341.121 35.847L352.118 33.4926L362.914 32.0223L373.189 41.0768L383.263 49.5508L383.562 49.7894L385.927 52.0246L388.488 54.4008L389.095 54.965L389.209 55.0735L395.204 60.645L396.224 61.5944L409.396 71.7936L419.454 71.685L429.382 70.8767L442.836 75.922L452.704 72.3632L466.332 76.8118" stroke="#40C274" stroke-width="1.08501" stroke-linecap="round" stroke-linejoin="round"/>
<path d="M315.471 163.19L303.07 169.358L288.818 162.995L274.783 155.947L260.949 146.671L247.3 132.375L233.792 119.431L220.392 101.854" stroke="#40C274" stroke-width="1.08501" stroke-linecap="round" stroke-linejoin="round"/>
<path d="M27.8232 78.2552L40.7132 73.4649L51.5634 76.7308L64.2635 71.5499L67.882 70.0363L76.7845 66.3093L81.6183 64.34L89.132 61.2748L99.9333 58.2693L104.165 56.4953L107.268 55.1933L112.14 53.1481L116.784 51.5856L123.136 49.4427L134.545 53.5929L146.654 49.9255L158.616 47.6525L170.242 55.8117L182.036 66.1845L193.939 75.955L205.912 80.447L218.048 85.0041L230.347 89.6262L236.835 92.0621" stroke="#40C274" stroke-width="1.08501" stroke-linecap="round" stroke-linejoin="round"/>
<path d="M275 75.9929L283.148 71.6366L295.094 62.4357L308.825 55.6977L320.592 49.2365" stroke="#40C274" stroke-width="1.08501" stroke-linecap="round" stroke-linejoin="round"/>
<path d="M327.672 157.125L315.471 163.19L301.252 156.392L287.261 147.273L273.476 134.611L259.848 120.126L246.356 101.399L232.999 94.0638L231.339 94.9644L231.291 94.9916L231.215 95.0295L230.347 95.5015L219.909 101.16L215.775 103.319L207.328 107.724L204.898 109.048L194.574 115.921L193.657 116.833L181.716 128.584L168.87 127.233L156.224 125.67L143.182 134.812L130.683 130.585L118.362 126.131L106.221 121.683L94.2262 116.621L82.3941 111.636L70.7084 106.297L59.191 101.144L45.9268 107.079" stroke="#40C274" stroke-width="1.08501" stroke-linecap="round" stroke-linejoin="round"/>
<path d="M40.7129 73.4646L53.4184 68.7393L65.9503 64.0792L78.3086 59.4841L90.4934 54.9488L102.515 50.4785L114.369 46.0734L126.066 41.7225L137.605 37.4312L148.986 33.1997L159.907 36.6283L170.969 40.4204L182.166 43.5833L193.45 42.4765L205.022 52.2905L216.246 48.9649L227.303 44.576L238.207 40.2468L248.976 35.1799L259.593 31.4799L270.074 27.0802L280.414 23.2826L290.619 19.4471L302.174 23.2175L302.787 23.4183" stroke="#40C274" stroke-width="1.08501" stroke-linecap="round" stroke-linejoin="round"/>
<path d="M147.164 41.739L148.504 42.428L158.616 47.6524L170.416 46.4209L175.939 45.6125L182.026 44.7282L193.559 49.6433L205.022 52.2908L216.676 57.6128L228.47 61.8714L240.421 66.179L250.148 69.689" stroke="#40C274" stroke-width="1.08501" stroke-linecap="round" stroke-linejoin="round"/>
<path d="M356.794 59.9999L345.45 65.8373L333.9 73.4324L322.176 81.6188L310.236 93.1796L298.056 111.381L285.828 124.081L273.475 134.611L260.949 146.671L248.271 155.779L235.408 164.053L221.731 157.217L208.239 148.792L194.899 138.864L181.716 128.584" stroke="#40C274" stroke-width="1.08501" stroke-linecap="round" stroke-linejoin="round"/>
<path d="M205.608 70.6979L217.12 66.4989L229.077 70.866L241.197 75.2984L250.609 78.6511" stroke="#40C274" stroke-width="1.08501" stroke-linecap="round" stroke-linejoin="round"/>
<path d="M148.986 33.1999L160.222 29.0172L171.148 32.8636L182.231 28.7351L193.293 32.6194L204.224 28.453L215.411 32.3374L226.738 35.9125L238.207 40.2471L249.828 44.278L261.605 44.6686L273.611 37.7462L275.938 36.7262L281.933 34.1005L284.38 33.0263L286.832 32.5923" stroke="#40C274" stroke-width="1.08501" stroke-linecap="round" stroke-linejoin="round"/>
<path d="M152.079 42.3791L159.045 43.2851L170.725 44.8963L182.025 44.7282L184.483 44.2399L193.451 42.4767L204.729 42.1187L215.824 40.54L227.303 44.5762L238.929 48.6613L250.701 52.8007L261.606 44.6685L272.375 37.6322L281.646 34.0733L284.38 33.0262" stroke="#40C274" stroke-width="1.08501" stroke-linecap="round" stroke-linejoin="round"/>
<path d="M160.222 29.0172L171.311 24.8941L182.231 28.7351L193.168 24.6174L204.224 28.453L215.01 24.3353L225.659 20.272L236.829 24.0587L248.14 27.8833L259.593 31.4801L271.202 33.2053L281.646 34.0733" stroke="#40C274" stroke-width="1.08501" stroke-linecap="round" stroke-linejoin="round"/>
<path d="M171.311 24.8939L182.253 20.8251L193.168 24.6172L203.964 20.5484L214.619 16.5393L225.659 20.2718L236.167 16.2627L247.332 19.9951L257.694 15.9914L267.926 12.0365L279.204 15.7201L290.619 19.4472" stroke="#40C274" stroke-width="1.08501" stroke-linecap="round" stroke-linejoin="round"/>
<path d="M182.253 20.8254L193.054 16.8109L203.964 20.5487L215.01 24.3355L226.191 28.171L237.513 32.0499L248.976 35.1802L260.585 37.3665L272.374 37.6323" stroke="#40C274" stroke-width="1.08501" stroke-linecap="round" stroke-linejoin="round"/>
<path d="M335.956 19.4635L347.387 19.3767" stroke="#40C274" stroke-width="1.08501" stroke-linecap="round" stroke-linejoin="round"/>
<path d="M193.055 16.8107L203.715 12.8449L214.619 16.5394L225.139 12.5737L236.168 16.2628L246.541 12.3079L257.694 15.9915L268.984 19.6914L279.205 15.7203" stroke="#40C274" stroke-width="1.08501" stroke-linecap="round" stroke-linejoin="round"/>
<path d="M203.715 12.8449L214.239 8.9334L225.138 12.5736L235.522 8.66758L245.77 4.80493L256.783 8.40176L267.926 12.0365" stroke="#40C274" stroke-width="1.08501" stroke-linecap="round" stroke-linejoin="round"/>
<path d="M137.604 37.4313L148.503 40.0787L159.533 42.2759L165.603 43.6973" stroke="#40C274" stroke-width="1.08501" stroke-linecap="round" stroke-linejoin="round"/>
<path d="M53.4189 68.7393L64.2637 71.5495L75.1139 71.0884L86.2244 72.705L97.6767 79.0035L109.297 85.9585L121.015 91.4541L133.629 88.1665L145.949 81.1465L158.014 70.0142L170.177 70.9908L182.037 66.1841L193.706 59.3051L205.31 61.4209L216.676 57.6125L227.878 53.1097L238.929 48.6612L249.828 44.2777L260.586 37.3661L271.203 33.2051L281.663 30.3244L291.986 26.9229L295.003 27.7855" stroke="#40C274" stroke-width="1.08501" stroke-linecap="round" stroke-linejoin="round"/>
<path d="M214.239 8.93387L224.628 5.0658L235.522 8.66805L246.54 12.3083L256.783 8.40223" stroke="#40C274" stroke-width="1.08501" stroke-linecap="round" stroke-linejoin="round"/>
<path d="M480.144 81.3201L470.27 86.2244L460.261 91.2046L450.105 96.2554L439.792 101.382L429.327 106.579L418.71 111.858L404.882 102.939L391.46 87.7054L379.276 69.4338L378.31 67.9853L377.87 67.2312L365.322 45.7045L365.008 45.4116L352.118 33.4927L338.886 27.5305L327.786 32.9882L316.556 37.1438L305.164 40.5941L293.478 53.2671L281.624 70.074L275 75.9927L271.067 78.0977L264.242 80.9295L258.812 83.1864L252.519 86.4957L245.428 90.2227L238.034 92.512L232.999 94.0636L231.567 94.9533L231.491 94.9968L231.377 95.0673L229.245 96.3856L220.391 101.854L218.764 104.474L207.718 122.274L194.899 138.864L181.884 151.553L168.604 159.604L155.524 154L142.628 148.483L129.923 143.041L117.407 137.681L105.065 132.397L92.8968 127.189L80.9074 122.057L69.0808 116.99L57.4223 111.999L45.9266 107.078L34.5882 102.223L23.4017 97.4326L12.3725 92.7128L1.48438 88.0526" stroke="#40C274" stroke-width="1.08501" stroke-linecap="round" stroke-linejoin="round"/>
<path d="M78.3086 59.4845L89.1317 61.2748L92.9726 59.6636L101.311 56.1698L113.333 51.3144L120.765 48.5802L125.203 46.9526L134.648 43.6596L136.916 42.8675L145.395 40.8277L148.504 40.079L159.907 36.6287L171.148 32.8637L182.215 36.8512L193.412 40.8386L204.485 36.5582L215.823 40.5402L226.739 35.9126L237.513 32.05L248.14 27.8835L258.633 23.7767L268.984 19.6917L280.414 23.283L291.986 26.9232L302.174 23.2179" stroke="#40C274" stroke-width="1.08501" stroke-linecap="round" stroke-linejoin="round"/>
<path d="M224.629 5.06555L234.888 1.25171L245.77 4.80516" stroke="#40C274" stroke-width="1.08501" stroke-linecap="round" stroke-linejoin="round"/>
<path d="M126.065 41.7227L136.916 42.8673L142.14 42.6666" stroke="#40C274" stroke-width="1.08501" stroke-linecap="round" stroke-linejoin="round"/>
<path d="M90.4932 54.9489L101.311 56.1696L112.139 53.1478" stroke="#40C274" stroke-width="1.08501" stroke-linecap="round" stroke-linejoin="round"/>
<path d="M114.369 46.0734L125.203 46.9522L131.697 45.3356" stroke="#40C274" stroke-width="1.08501" stroke-linecap="round" stroke-linejoin="round"/>
<path d="M102.516 50.4786L113.333 51.3141L120.283 49.8982" stroke="#40C274" stroke-width="1.08501" stroke-linecap="round" stroke-linejoin="round"/>
<path d="M191.768 114.055L182.025 110.187L169.694 105.288L157.536 100.455L144.993 105.646L132.993 100.807L121.015 91.4545" stroke="#40C274" stroke-width="1.08501" stroke-linecap="round" stroke-linejoin="round"/>
<path d="M215.639 103.265L206.541 99.7546L194.226 94.9968L182.052 100.107L169.694 105.288L157.157 110.545L144.994 105.646L132.261 110.909L119.338 116.252L107.338 111.272L94.2258 116.621L80.9072 122.057" stroke="#40C274" stroke-width="1.08501" stroke-linecap="round" stroke-linejoin="round"/>
<path d="M394.129 56.7935L403.01 60.5476L416.106 65.8642L425.985 63.6399" stroke="#40C274" stroke-width="1.08501" stroke-linecap="round" stroke-linejoin="round"/>
<path d="M394.872 57.2871L403.01 60.5476L412.883 59.3649" stroke="#40C274" stroke-width="1.08501" stroke-linecap="round" stroke-linejoin="round"/>
<path d="M257.884 64.8389L263.727 58.6218L274.87 40.1929L283.056 34.9956" stroke="#40C274" stroke-width="1.08501" stroke-linecap="round" stroke-linejoin="round"/>
<path d="M392.789 55.0955L399.95 55.1388" stroke="#40C274" stroke-width="1.08501" stroke-linecap="round" stroke-linejoin="round"/>
<path d="M264.242 80.9297L268.436 75.9278L281.624 70.0741L295.095 62.4356L306.986 46.9579L318.618 39.1675" stroke="#40C274" stroke-width="1.08501" stroke-linecap="round" stroke-linejoin="round"/>
<path d="M175.684 44.3266L182.167 43.5834L193.413 40.8383L204.729 42.1186L216.247 48.965L227.878 53.1098L239.661 57.3033L251.602 61.5566" stroke="#40C274" stroke-width="1.08501" stroke-linecap="round" stroke-linejoin="round"/>
<path d="M253.295 85.5085L255.498 82.7308L264.487 69.3146L267.237 65.2079L267.498 64.9475L277.263 45.1893L278.353 43.5184L285.786 34.1981L286.974 32.5706L287.31 32.2885L288.585 31.5941L294.905 27.8454L295.003 27.7857L298.274 25.8707L302.788 23.4185L310.963 18.9754L323.799 16.431L335.957 19.4636L336.716 19.6536L347.387 19.3769L354.283 22.7675L360.359 25.7568L365.561 31.6647L368.317 35.2561L373.189 41.0772L375.82 44.2508L386.117 56.7068L388.032 58.931L399.164 71.8482L409.396 71.7939L422.736 81.3854L432.892 78.1033L442.836 75.9224L456.475 80.8918L470.271 86.2246" stroke="#40C274" stroke-width="1.08501" stroke-linecap="round" stroke-linejoin="round"/>
<path d="M386.496 50.7445L387.185 50.9724L399.95 55.1388L412.884 59.365L425.985 63.6399L439.26 67.9745" stroke="#40C274" stroke-width="1.08501" stroke-linecap="round" stroke-linejoin="round"/>
<path d="M230.444 95.4254L230.992 94.986L231.193 95.0293" stroke="#40C274" stroke-width="1.08501" stroke-linecap="round" stroke-linejoin="round"/>
<path d="M231.306 94.9644L230.992 94.9861L218.53 94.6497L206.226 89.9679L194.08 85.3403L182.074 90.3097L169.895 95.3441L157.536 100.455L145.541 95.6913L133.628 88.1667L121.639 74.0615L110.023 67.622L98.6525 64.0957L87.5908 64.253L76.784 66.3092L65.9502 64.0795" stroke="#40C274" stroke-width="1.08501" stroke-linecap="round" stroke-linejoin="round"/>
<path d="M267.395 65.1481L280.225 60.1624L293.478 53.2672L306.987 46.9578L320.593 49.2363L332.11 46.1983L343.492 41.5436L354.51 43.5292L365.323 45.7046L375.787 52.2364L386.117 56.7066L396.224 61.5946L406.206 64.8388L410.589 67.1011L419.454 71.6852L432.892 78.1031L446.444 85.4812L460.261 91.2047" stroke="#40C274" stroke-width="1.08501" stroke-linecap="round" stroke-linejoin="round"/>
<path d="M365.989 31.605L371.116 36.9324L373.145 39.0428L386.496 50.7446" stroke="#40C274" stroke-width="1.08501" stroke-linecap="round" stroke-linejoin="round"/>
<path d="M205.608 70.6981L198.35 63.7485L193.706 59.3054L181.955 50.5222L170.416 46.4209L159.045 43.2852" stroke="#40C274" stroke-width="1.08501" stroke-linecap="round" stroke-linejoin="round"/>
<path d="M135.19 43.9414L139.525 43.144L142.14 42.6666L147.164 41.7389L152.079 42.3791L159.533 42.276L170.969 40.4206L182.215 36.8509L193.293 32.6193L204.485 36.5579L215.411 32.3373L226.191 28.1708L236.829 24.0586L247.332 19.9952L258.632 23.7765L270.074 27.0803L281.662 30.3245L288.514 31.5832" stroke="#40C274" stroke-width="1.08501" stroke-linecap="round" stroke-linejoin="round"/>
</svg>
