<svg aria-hidden="true" style="position: absolute; width: 0; height: 0; overflow: hidden;" version="1.1" xmlns="http://www.w3.org/2000/svg" xmlns:xlink="http://www.w3.org/1999/xlink">
     <defs>
          <symbol id="logo" viewBox="0 0 96 32">
               <path d="M56.006 22.016l-8.337 3.944-7.982-3.944h-39.686l37.175 3.944 10.493 6.040 10.481-6.040 37.353-3.944h-39.497z"></path>
               <path d="M50.795 19.079l-3.127-19.079-2.7 19.079 2.7 3.079 3.127-3.079z"></path>
               <path d="M8.48 17.386h3.434l0.663 1.386h1.99l-0.663-1.386-0.474-1.007-1.812-3.778h-2.854l-2.949 6.17h1.99l0.675-1.386zM10.197 13.797l1.244 2.594h-2.475l1.232-2.594z"></path>
               <path d="M19.47 18.771l0.568-1.184 2.38-4.974h-1.99l-2.38 4.974-2.38-4.974h-1.99l2.949 6.158h2.842z"></path>
               <path d="M25.060 12.613h-1.99v6.17h1.99v-6.17z"></path>
               <path d="M28.791 17.386h3.434l0.663 1.386h1.99l-0.663-1.386-0.474-1.007-1.812-3.778h-2.854l-2.949 6.17h2.002l0.663-1.386zM30.508 13.797l1.244 2.594h-2.475l1.232-2.594z"></path>
               <path d="M67.719 18.049l0.509 0.438 0.64 0.249v0.036h3.873v-0.012l0.699-0.201 0.569-0.45 0.367-0.604 0.059-0.284 0.083-0.45v-4.157h-1.99v4.607h-3.281v-4.607h-1.989v4.157l0.118 0.687 0.343 0.592z"></path>
               <path d="M78.058 17.386h3.435l0.663 1.386h2.002l-0.663-1.386-0.486-1.007-1.243-2.594-0.569-1.184h-2.843l-2.949 6.17h1.99l0.663-1.386zM79.775 13.797l1.244 2.594h-2.475l1.231-2.594z"></path>
          </symbol>
          <symbol id="plus" viewBox="0 0 32 32">
               <path d="M9.963 9.626v-9.201c1.416-0.437 7.427-0.56 12.309-0.258 0.3 1.514 0.107 3.089 0.14 4.646 0.033 1.517 0.008 3.035 0.008 4.767h9.29c0.365 1.765 0.39 10.768 0.053 12.752h-9.142c-0.377 1.693-0.156 3.273-0.193 4.836-0.041 1.512-0.008 3.026-0.008 4.502-1.551 0.364-9.486 0.45-12.42 0.141-0.016-1.53-0.041-3.093-0.049-4.656-0.012-1.513-0.004-3.025-0.004-4.696-0.907-0.025-1.682-0.062-2.458-0.066-1.998-0.009-3.992 0.019-5.986-0.011-1.214-0.018-1.477-0.239-1.485-1.341-0.029-3.702-0.012-7.404-0.012-11.185 1.719-0.443 3.373-0.167 5.002-0.22 1.58-0.051 3.164-0.011 4.957-0.011z"></path>
          </symbol>
          <symbol id="burger-menu" viewBox="0 0 47 32">
               <path stroke-linejoin="round" stroke-linecap="round" stroke-miterlimit="4" stroke-width="4.3636" d="M1.961 29.153h42.966M1.961 15.615h42.966M1.961 2.077h42.966"></path>
          </symbol>
          <symbol id="icon-close" viewBox="0 0 32 32">
               <path stroke-linejoin="round" stroke-linecap="round" stroke-miterlimit="4" stroke-width="3.4286" d="M24 8l-16 16"></path>
               <path stroke-linejoin="round" stroke-linecap="round" stroke-miterlimit="4" stroke-width="3.4286" d="M8 8l16 16"></path>
          </symbol>
          <symbol id="icon-copy" viewBox="0 0 32 32">
               <path d="M20.19 6.704h-11.321v-1.599c0-0.808 0.331-1.542 0.865-2.076s1.268-0.865 2.075-0.865h15.085c0.808 0 1.542 0.331 2.076 0.865s0.865 1.268 0.865 2.076v15.085c0 0.807-0.331 1.542-0.865 2.075s-1.268 0.865-2.076 0.865h-1.599v-11.321c0-1.405-0.574-2.681-1.499-3.607s-2.201-1.499-3.607-1.499zM6.704 6.704h-1.599c-1.405 0-2.681 0.574-3.607 1.499s-1.499 2.201-1.499 3.607v15.085c0 1.405 0.574 2.681 1.499 3.607 0.925 0.925 2.201 1.499 3.607 1.499h15.085c1.405 0 2.681-0.574 3.607-1.499s1.499-2.201 1.499-3.607v-1.599h1.599c1.405 0 2.681-0.574 3.607-1.499 0.924-0.924 1.499-2.201 1.499-3.607v-15.085c0-1.405-0.574-2.681-1.499-3.607-0.925-0.924-2.201-1.499-3.607-1.499h-15.085c-1.405 0-2.681 0.574-3.607 1.499-0.925 0.925-1.499 2.201-1.499 3.607v1.599zM5.105 8.87h15.085c0.807 0 1.542 0.331 2.075 0.865s0.865 1.268 0.865 2.076v15.085c0 0.807-0.331 1.542-0.865 2.076s-1.268 0.865-2.075 0.865h-15.085c-0.808 0-1.542-0.331-2.076-0.865s-0.865-1.268-0.865-2.076v-15.085c0-0.807 0.331-1.542 0.865-2.076s1.268-0.865 2.076-0.865z"></path>
          </symbol>
          <symbol id="icon-training-school" viewBox="0 0 41 32">
               <path d="M2.651 30.968c0.189 0 0.338 0.149 0.338 0.339s-0.149 0.339-0.338 0.339c-0.189 0-0.338-0.149-0.338-0.339s0.149-0.339 0.338-0.339z"></path>
               <path d="M5.451 31.943h-0.176l-0.541-1.354-0.541 1.354h-0.176l0.649-1.544h0.149l0.636 1.544z"></path>
               <path d="M6.506 30.385h0.852v0.136h-0.69v0.555h0.676v0.135h-0.676v0.569h0.69v0.136h-0.852v-1.53z"></path>
               <path d="M8.738 30.521h-0.352v-0.136h0.866v0.136h-0.352v1.408h-0.149v-1.408h-0.014z"></path>
               <path d="M10.795 31.943h-0.162l0.176-0.406-0.595-1.151h0.176l0.501 0.975 0.433-0.975h0.162l-0.69 1.558z"></path>
               <path d="M12.54 30.385h0.149v0.677h0.812v-0.677h0.149v1.544h-0.149v-0.731h-0.812v0.731h-0.149v-1.544z"></path>
               <path d="M16.097 30.778c-0.041-0.068-0.189-0.284-0.528-0.284-0.392 0-0.649 0.298-0.649 0.664 0 0.379 0.298 0.664 0.663 0.664 0.189 0 0.392-0.095 0.528-0.298h0.189c-0.149 0.271-0.406 0.433-0.703 0.433-0.46 0-0.812-0.338-0.812-0.813 0-0.461 0.352-0.799 0.798-0.799 0.325 0 0.582 0.149 0.717 0.42h-0.203v0.014z"></path>
               <path d="M17.531 30.385v0.637h0.352c0.311 0 0.487 0.176 0.487 0.461 0 0.271-0.203 0.46-0.487 0.46h-0.514v-1.544h0.162v-0.014zM17.531 31.794h0.352c0.271 0 0.338-0.19 0.338-0.312s-0.068-0.312-0.338-0.312h-0.352v0.623z"></path>
               <path d="M19.601 30.385v1.544h-0.149v-1.544h0.149zM20.304 30.385h0.189l-0.595 0.745 0.622 0.813h-0.189l-0.609-0.799 0.582-0.758z"></path>
               <path d="M22.184 30.385h0.176l0.663 1.544h-0.162l-0.23-0.515h-0.717l-0.23 0.515h-0.176l0.676-1.544zM22.563 31.279l-0.298-0.704-0.298 0.704h0.595z"></path>
               <path d="M25.593 30.385v1.409h0.622v-1.409h0.149v1.409h0.622v-1.409h0.149v1.544h-1.704v-1.544h0.162z"></path>
               <path d="M28.475 30.385v1.544h-0.149v-1.544h0.149zM29.178 30.385h0.189l-0.595 0.745 0.622 0.813h-0.189l-0.609-0.799 0.582-0.758z"></path>
               <path d="M31.91 31.157c0 0.461-0.365 0.813-0.825 0.813s-0.825-0.339-0.825-0.799c0-0.461 0.365-0.813 0.825-0.813s0.825 0.339 0.825 0.799zM31.748 31.157c0-0.379-0.298-0.65-0.663-0.65-0.379 0-0.663 0.284-0.663 0.664 0 0.393 0.298 0.664 0.663 0.664 0.379-0.014 0.663-0.298 0.663-0.677z"></path>
               <path d="M34.237 31.943h-0.176l-0.541-1.354-0.541 1.354h-0.176l0.649-1.544h0.149l0.636 1.544z"></path>
               <path d="M35.887 30.385h0.176l0.663 1.544h-0.162l-0.23-0.515h-0.717l-0.23 0.515h-0.162l0.663-1.544zM36.266 31.279l-0.298-0.704-0.298 0.704h0.595z"></path>
               <path d="M38.092 30.968c0.189 0 0.338 0.149 0.338 0.339s-0.149 0.339-0.338 0.339c-0.189 0-0.338-0.149-0.338-0.339s0.149-0.339 0.338-0.339z"></path>
               <path d="M28.826 14.594c1.894-1.192 3.003-3.183 3.003-3.183-1.596 1.801-2.746 2.438-3.503 2.682 0.162 0.162 0.325 0.325 0.5 0.501z"></path>
               <path d="M23.916 10.097c-0.081-3.034 7.765-5.648 10.348-6.853 0 0 3.341-1.070 2.489-2.343s-2.327-0.948-3.436-0.528c-1.109 0.42-12.661 4.442-9.401 9.724z"></path>
               <path d="M16.828 7.334c0 0-0.365 1.801-1.799 2.641-1.434 0.826-6.466 3.427-6.466 3.427s-3.314 1.517-2.435 2.98c0.879 1.463 2.327 0.907 2.327 0.907s10.335-3.779 8.373-9.954z"></path>
               <path d="M22.509 5.642c0 0-2.57 0.46-3.192-1.192s-1.799-3.643-3.476-2.858c-1.677 0.786-0.96 1.91-0.96 1.91s2.191 5.553 7.629 2.14z"></path>
               <path d="M18.654 9.352c0.203 0.447 0.609 0.786 1.123 0.867 0.825 0.149 1.61-0.406 1.759-1.232 0.135-0.799-0.365-1.558-1.15-1.734 0.406 0.298 0.636 0.813 0.541 1.341-0.135 0.745-0.839 1.232-1.569 1.097-0.271-0.041-0.514-0.163-0.703-0.339z"></path>
               <path d="M20.318 8.106c-0.081-0.19-0.257-0.325-0.473-0.366-0.352-0.068-0.676 0.176-0.744 0.515-0.054 0.339 0.149 0.664 0.487 0.731-0.176-0.122-0.271-0.339-0.23-0.569 0.054-0.312 0.352-0.528 0.663-0.46 0.122 0.027 0.216 0.081 0.298 0.149z"></path>
               <path d="M18.275 11.343c0 0 2.097 0.284 3.138 1.869 1.055 1.585 4.383 7.178 4.383 7.178s1.65 3.643 4.18 2.519c2.53-1.124 1.813-3.535 1.813-3.535s-6.588-10.713-13.514-8.031z"></path>
               <path d="M30.517 16.503c2.935-2.357 3.382-6.528 3.382-6.528-1.61 4.334-3.395 5.16-4.234 5.512 0.311 0.352 0.595 0.691 0.852 1.016z"></path>
               <path d="M36.185 5.682c0.555 5.742-3.409 10.401-5.032 11.62 0.555 0.745 0.947 1.314 1.109 1.585 6.047-5.35 3.923-13.205 3.923-13.205z"></path>
               <path d="M0.014 20.77h7.142v7.151h-1.434v-5.715h-4.288v5.715h-1.434v-7.151h0.014z"></path>
               <path d="M15.813 22.192h-5.708v1.436h4.288v1.436h-4.288v1.436h5.708v1.436h-7.142v-7.151h7.142v1.408z"></path>
               <path d="M17.058 20.77h7.142v4.293h-5.708v2.858h-1.434v-7.151zM22.766 23.627v-1.436h-4.288v1.436h4.288z"></path>
               <path d="M33.588 20.77h7.129v7.151h-1.434v-2.858h-4.288v2.858h-1.434v-7.151h0.027zM39.296 23.627v-1.436h-4.288v1.436h4.288z"></path>
               <path d="M32.492 20.851c-0.122 0.664-0.46 1.503-1.38 2.18v3.44h-1.434v-2.749c-0.23 0.054-0.46 0.081-0.676 0.081-0.257 0-0.514-0.041-0.744-0.108v2.776h-1.434v-3.562c-0.676-0.596-1.163-1.341-1.434-1.801v6.799h7.142v-7.151h-0.041c0.014 0.041 0 0.068 0 0.095z"></path>
          </symbol>
     </defs>
</svg>
